<?xml version="1.0" encoding="UTF-8" standalone="no"?>
<!-- Created with Inkscape (http://www.inkscape.org/) -->
<svg
   xmlns:dc="http://purl.org/dc/elements/1.1/"
   xmlns:cc="http://web.resource.org/cc/"
   xmlns:rdf="http://www.w3.org/1999/02/22-rdf-syntax-ns#"
   xmlns:svg="http://www.w3.org/2000/svg"
   xmlns="http://www.w3.org/2000/svg"
   xmlns:sodipodi="http://inkscape.sourceforge.net/DTD/sodipodi-0.dtd"
   xmlns:inkscape="http://www.inkscape.org/namespaces/inkscape"
   width="576.28000pt"
   height="481.89000pt"
   id="svg2323"
   sodipodi:version="0.32"
   inkscape:version="0.43"
   sodipodi:docbase="F:\Guillermo\Imachens"
   sodipodi:docname="euskalherria.svg">
  <defs
     id="defs2325" />
  <sodipodi:namedview
     id="base"
     pagecolor="#ffffff"
     bordercolor="#666666"
     borderopacity="1.0"
     inkscape:pageopacity="0.0"
     inkscape:pageshadow="2"
     inkscape:zoom="0.67753378"
     inkscape:cx="413.631"
     inkscape:cy="259.44823"
     inkscape:document-units="px"
     inkscape:current-layer="layer1"
     inkscape:window-width="1024"
     inkscape:window-height="742"
     inkscape:window-x="-4"
     inkscape:window-y="-4"
     showguides="true"
     inkscape:guide-bbox="true" />
  <metadata
     id="metadata2328">
    <rdf:RDF>
      <cc:Work
         rdf:about="">
        <dc:format>image/svg+xml</dc:format>
        <dc:type
           rdf:resource="http://purl.org/dc/dcmitype/StillImage" />
      </cc:Work>
    </rdf:RDF>
  </metadata>
  <g
     inkscape:label="Layer 1"
     inkscape:groupmode="layer"
     id="layer1">
    <path
       style="fill:#98f193;fill-opacity:1;fill-rule:nonzero;stroke:none;stroke-width:1px;stroke-linecap:butt;stroke-linejoin:miter;stroke-opacity:1"
       id="path18379"
       d="M 448.36817,122.62597 C 453.41427,124.87889 472.29325,127.68439 476.92775,129.14422 C 482.29711,130.83552 506.24137,133.96051 509.21628,139.33289 C 512.19119,144.70527 513.00354,160.796 515.23452,166.78122 C 517.46551,172.76644 495.93365,197.06534 497.87475,203.21809 C 499.81586,209.37084 517.55412,215.31016 520.04676,212.67853 C 523.20853,209.34049 520.82767,184.8688 533.17542,183.64233 C 549.70178,182.00081 553.52799,208.1187 558.67544,209.63593 C 568.1823,212.43812 604.53754,218.94988 605.02472,226.94141 C 605.5119,234.93295 652.40465,237.02708 654.79109,236.0936 C 657.61381,234.98946 664.08249,231.39222 665.71005,232.85073 C 667.60177,234.54597 672.87009,235.07834 672.39905,241.98924 C 671.92732,248.91016 665.66415,244.96566 662.23353,246.59821 C 660.1559,247.58691 657.70326,250.08435 655.205,252.77871 C 653.52703,254.58839 649.81477,262.98893 649.72786,265.7108 C 649.6844,267.07173 647.19895,267.83775 646.06622,269.97673 C 644.93348,272.1157 644.10982,273.01851 642.17172,275.69667 C 640.23361,278.37482 647.61753,287.00292 645.15795,289.98139 C 642.69837,292.95987 644.22362,297.85518 641.52648,300.89511 C 638.82933,303.93504 633.21434,304.85869 630.56352,307.72122 C 627.91271,310.58375 624.83421,317.47246 622.51363,319.91872 C 620.19305,322.36499 616.02128,318.80335 611.18389,320.07266 C 608.79101,320.70055 603.71356,321.44129 602.90516,322.33845 C 601.41353,323.99386 601.02842,326.91135 600.88158,329.558 C 600.74376,332.04218 601.90589,336.27881 599.35216,337.63845 C 596.79843,338.99809 590.78976,340.35077 586.48592,341.24167 C 583.69318,341.81977 577.49577,338.12617 575.49946,339.72595 C 571.83273,342.66435 565.00951,364.10093 559.83379,370.63078 C 554.65807,377.16062 551.12986,368.78373 546.74763,372.62676 C 544.48313,374.61263 543.40288,378.37015 542.64875,383.08433 C 541.89192,387.81546 545.38031,393.73027 541.28936,399.28186 C 538.22078,403.44604 534.66274,406.61301 531.51968,409.54563 C 528.63762,412.23472 525.93071,415.78118 525.67205,416.81304 C 525.40751,417.86834 532.46006,432.29592 531.39284,437.40436 C 530.32562,442.5128 528.44416,440.12848 524.66175,444.60951 C 520.3252,449.74702 519.6315,459.39324 518.26602,464.82819 C 516.90054,470.26314 512.80832,473.17852 511.94727,474.88684 C 510.22517,478.30347 515.26911,485.09316 516.87225,490.27798 C 518.47539,495.4628 516.63773,499.04277 516.80714,502.30187 C 516.97655,505.56097 517.44888,510.89373 521.02991,513.2089 C 524.80717,515.65093 523.99512,522.12717 525.11919,523.75237 C 525.68123,524.56497 529.16477,527.49722 531.43637,528.48142 C 533.81905,529.51373 540.69109,527.65058 541.46856,530.44875 C 542.24602,533.24692 539.53804,540.44549 538.15447,542.64196 C 536.96024,544.53785 533.05898,548.2947 532.87224,548.8265 C 532.68549,549.3583 530.74026,554.65775 527.36948,558.91054 C 524.46388,562.57642 521.8115,569.76129 518.53171,574.45558 C 515.05715,579.42864 516.61959,578.80954 510.70482,578.57855 C 506.05925,578.39713 492.37556,579.00867 491.79724,578.92212 C 489.48396,578.57591 476.01172,578.59172 473.71995,575.23953 C 473.43348,574.82051 472.55142,572.67495 470.3128,571.51102 C 468.07418,570.3471 467.08812,569.90388 463.46271,568.1931 C 459.8373,566.48233 451.6624,567.57669 446.77748,567.18451 C 437.37331,566.42951 436.30985,560.85323 431.60692,558.64295 C 426.90399,556.43268 422.99709,556.54476 418.60344,554.38183 C 414.20978,552.21889 409.59027,553.78191 406.07125,551.86438 C 402.55222,549.94685 401.17732,545.59242 399.09827,544.11835 C 397.01923,542.64428 397.10607,535.7014 397.03237,534.86886 C 396.88496,533.20379 397.51884,524.56497 401.53534,521.90042 C 408.5043,517.2772 404.40967,511.31907 410.10299,508.48893 C 415.7963,505.65879 420.05835,508.04393 425.99865,506.80074 C 431.1762,505.71718 443.21028,507.20883 444.13649,505.52009 C 447.84134,498.76513 446.80144,490.01774 443.90231,486.00876 C 443.51326,485.47077 436.83832,481.51887 433.33599,481.65989 C 429.99442,481.79443 424.54658,481.07752 420.14955,478.12555 C 415.75253,475.17357 405.48548,475.71188 404.476,471.91706 C 403.27919,467.418 398.50272,457.03954 392.71022,453.28392 C 386.91772,449.52831 385.53842,445.25126 380.02787,441.69771 C 374.51732,438.14416 370.35467,435.05321 364.99647,435.75708 C 359.59941,436.46605 358.04182,443.30787 355.05456,441.36622 C 352.06729,439.42457 347.42829,422.17156 346.68236,421.63974 C 339.23936,416.33318 335.29959,418.79196 329.34663,417.01985 C 323.39368,415.24774 320.90426,413.73299 314.29821,411.00431 C 311.19347,409.72188 304.42835,404.81442 299.01396,403.84578 C 293.59958,402.87714 283.33336,402.3689 282.01449,402.58061 C 279.12272,403.0448 270.31137,396.2481 268.57161,391.23584 C 266.83185,386.22357 272.16366,382.99574 272.51064,378.07391 C 273.16899,368.73516 251.22821,377.46033 252.4836,360.21898 C 253.82191,341.83867 262.35745,336.28196 278.04359,339.92797 C 292.02924,343.17873 288.81523,331.51504 288.27362,323.59718 C 287.73201,315.67931 298.87376,302.64981 297.48293,294.45162 C 296.09209,286.25344 313.09552,255.08307 311.01361,248.18824 C 308.9317,241.29341 353.91732,241.62876 358.08896,234.46037 C 362.08418,227.23025 364.2555,211.95362 361.98305,205.94444 C 359.68386,200.15313 373.47918,196.29604 377.50465,194.87752 C 381.05006,187.1737 381.29812,163.35399 383.67734,156.87917 C 385.74967,151.2395 412.22182,147.8126 416.22027,136.99584 C 420.21871,126.17908 443.32206,120.37306 448.36817,122.62597 z "
       sodipodi:nodetypes="czzzzzszzzsssszssssssszssszszssszssszszszssszssszzssssssszssszzssssssszssszszzzzzzccczzz" />
    <path
       style="fill:#f4a8e3;fill-opacity:1;fill-rule:nonzero;stroke:none;stroke-width:1px;stroke-linecap:butt;stroke-linejoin:miter;stroke-opacity:1"
       id="path18381"
       d="M 186.49921,81.456599 C 188.08644,81.354668 193.36657,91.725514 197.30092,93.656334 C 201.23527,95.587174 206.69388,93.513454 211.24718,96.179104 C 215.80048,98.844734 217.04396,100.72421 221.06617,101.0467 C 224.51025,101.32283 227.75041,102.03656 228.35709,102.27801 C 229.30987,102.65721 232.44382,102.78392 236.27882,104.42153 C 240.11381,106.05915 241.51892,106.59855 246.31954,108.84677 C 251.12017,111.09499 251.48896,113.74748 255.33863,115.95851 C 259.18829,118.16954 269.09666,123.42544 273.64709,125.22598 C 279.44556,127.52034 278.40681,129.47299 284.3917,131.2831 C 285.60173,131.64907 299.42173,130.85383 304.56954,131.09963 C 309.71736,131.34542 306.56196,126.72849 312.93364,126.83077 C 319.30532,126.93305 316.5703,131.75455 321.45192,131.68997 C 326.33354,131.6254 338.4628,132.57852 339.14044,132.32375 C 341.55587,131.41563 378.18304,118.02009 382.18993,117.70083 C 383.01007,117.63548 391.70433,113.6736 394.97565,111.91766 C 396.524,111.08655 397.55178,108.0864 401.58942,105.83683 C 405.62706,103.58726 412.67455,102.08826 413.71683,104.25946 C 414.23797,105.34507 416.59066,109.0483 419.00669,112.35196 C 420.65062,114.59984 426.53294,111.7537 426.29638,116.81624 C 426.1781,119.3475 430.2955,124.73228 429.02868,128.27702 C 427.76185,131.82177 421.11082,133.52649 420.11885,135.33939 C 418.20014,138.84596 414.9877,145.97553 414.15688,147.60303 C 412.46296,150.92127 403.61526,155.30499 401.37355,154.79521 C 399.49334,154.36764 387.71612,153.10697 386.59536,160.16015 C 385.4746,167.21333 386.28481,168.59352 385.30355,177.32219 C 384.3449,185.84972 385.3705,181.21379 385.04402,184.80444 C 384.73107,188.24633 384.19431,190.27441 381.22774,193.95095 C 378.26117,197.6275 367.88349,200.36961 365.59999,203.21013 C 363.3165,206.05065 361.74748,208.06711 361.63882,208.44745 C 359.90025,214.5328 360.6414,218.7727 361.00313,228.93037 C 361.18365,233.9993 348.50405,243.25962 333.50972,245.57809 C 321.76077,247.39475 314.12082,245.85606 313.16008,247.51057 C 311.15224,250.9683 309.81755,260.58886 311.14056,261.65255 C 311.27232,261.75849 309.02004,274.77285 309.34388,278.68186 C 309.5001,280.56762 311.03455,282.40711 310.18247,284.60904 C 309.33039,286.81097 303.48265,289.37535 301.92011,292.18906 C 300.28218,295.13851 304.20911,304.89875 303.05061,309.39063 C 301.89212,313.88251 295.6482,313.10602 293.4979,315.85498 C 292.50336,317.12641 293.03703,322.32556 292.33442,325.7196 C 291.90972,327.77117 297.51124,332.99581 296.21458,336.83349 C 294.91792,340.67116 288.02764,345.47007 285.31872,346.14832 C 280.30618,347.40334 271.00405,336.88787 267.60481,339.87406 C 264.20556,342.86024 258.99836,347.44762 257.30695,348.94699 C 255.61555,350.44636 253.86046,355.66063 254.48109,359.67915 C 254.9756,362.88106 257.43611,365.33962 262.04795,366.74414 C 264.27041,367.42098 267.17642,358.49041 269.23454,358.88509 C 271.45377,359.31067 273.1473,359.73044 274.04975,361.94956 C 274.9522,364.16868 273.759,370.79627 274.37935,372.67916 C 274.9997,374.56204 268.56259,389.18134 268.37004,390.16368 C 267.59985,394.09306 248.28864,391.69182 246.67695,393.08064 C 240.2302,398.63592 214.83971,394.38575 210.57274,390.90542 C 207.91364,388.73654 204.14687,384.84063 203.59309,379.17441 C 203.03931,373.5082 205.69854,366.07167 204.4113,364.1271 C 202.14206,360.69907 200.18246,358.04023 199.59594,357.67267 C 195.08956,354.84865 195.26422,354.63851 191.17187,354.30388 C 190.14878,354.22022 186.92647,355.76744 182.32953,363.56925 C 181.70217,364.63398 179.61909,366.02697 176.23993,368.38005 C 174.23094,369.77901 174.18653,372.21991 171.50583,369.81946 C 168.82514,367.41902 165.26893,351.99942 162.82328,349.76189 C 160.37762,347.52436 158.25976,345.6842 156.89028,344.87325 C 151.41235,341.62945 154.51633,334.65289 151.89392,332.22003 C 148.0812,328.68289 144.05365,327.46253 142.80501,326.73885 C 142.18069,326.37701 140.93461,325.52338 139.23735,324.29398 C 137.54009,323.06457 133.04344,323.54668 130.61442,321.68173 C 128.1854,319.81678 124.95398,322.12757 121.87348,316.98907 C 120.01275,313.88525 116.90704,310.48201 114.03806,308.04206 C 111.16908,305.6021 100.22011,311.43442 96.651606,308.06055 C 94.656968,306.1747 98.77306,300.25907 96.046124,296.34584 C 94.415466,294.00581 92.037691,294.72466 91.06766,293.16242 C 90.097629,291.60017 95.440042,283.83544 95.785364,283.02982 C 98.55188,276.5757 104.77875,274.23024 103.78046,268.02834 C 103.65361,267.2403 95.899522,267.8925 96.584632,266.42886 C 96.627451,266.33738 93.18602,272.39149 90.065958,274.28022 C 86.945896,276.16896 84.1472,273.89231 82.34455,273.83768 C 80.541901,273.78305 79.670068,284.36485 77.859834,287.11862 C 76.049601,289.87238 73.300966,284.79811 70.875658,284.74077 C 66.025043,284.6261 65.85959,279.27069 62.992013,276.46235 C 60.380174,273.90446 57.946592,264.78265 57.942201,264.41977 C 57.937811,264.05689 66.088094,258.08658 68.460701,255.25723 C 71.074463,252.14029 71.001978,243.50088 79.038265,244.26925 C 83.950424,244.73892 88.769586,245.50162 91.043394,248.50391 C 94.260981,252.75233 95.639107,256.57773 98.01722,258.13531 C 101.7059,260.55128 123.7721,260.83449 125.4206,258.59975 C 127.0691,256.365 129.98976,252.01227 130.38737,249.09478 C 130.88274,245.45996 128.77229,245.004 127.6508,242.46335 C 125.72307,238.09621 125.54459,236.00852 126.98684,234.06733 C 128.42908,232.12614 130.19364,229.33525 131.12679,227.87864 C 132.05993,226.42202 132.68348,225.25604 132.88734,224.47737 C 133.29506,222.92003 129.9239,220.14975 126.72258,217.69493 C 125.22443,216.54613 123.10711,213.16645 119.18232,214.24466 C 115.25752,215.32287 111.51001,225.34632 109.31397,226.37267 C 104.61825,228.56728 92.907329,224.23365 88.960045,223.67509 C 85.012758,223.11654 90.698228,218.36378 91.440415,216.16345 C 92.180312,213.96991 95.144853,207.54461 95.598231,203.40921 C 96.108097,198.75857 90.816876,195.54686 88.347246,192.19898 C 86.043775,189.07635 89.621432,186.1498 90.198445,182.78089 C 90.349122,181.90116 90.787893,180.45538 90.560562,177.85555 C 90.273726,174.57521 89.920172,172.01575 86.472918,170.36353 C 85.529791,169.9115 77.897742,167.50583 73.05183,164.80241 C 71.886346,164.15221 63.876295,165.60679 59.492527,166.51434 C 55.108759,167.42188 60.091337,171.95698 54.645319,173.29322 C 49.1993,174.62946 37.760189,181.63785 33.407955,182.27375 C 29.055721,182.90964 26.050299,172.99845 24.947883,171.80496 C 22.743051,169.41798 22.168499,157.84724 24.995662,152.72616 C 28.968258,145.53026 37.704469,140.58448 41.018222,139.4704 C 45.270665,138.04073 50.440094,131.24439 51.570842,131.22104 C 57.180133,131.10521 62.279864,131.01528 66.985415,131.27362 C 69.293631,131.40034 74.527609,132.79515 78.48297,132.16001 C 82.438332,131.52488 85.11508,128.85981 87.527069,128.17232 C 92.351049,126.79734 92.260266,118.06208 97.018184,113.82775 C 101.0513,110.23846 99.35161,110.09196 104.20458,108.9207 C 109.05755,107.74945 117.33226,117.03358 118.35391,117.43357 C 121.05855,118.49247 125.49185,122.17284 126.60743,118.80051 C 127.72301,115.42818 123.69448,113.35233 121.73832,110.72616 C 120.42213,108.95916 114.94101,106.74987 114.95321,106.39448 C 115.01541,104.58197 121.15381,105.03328 125.98817,103.25568 C 130.82252,101.47809 134.35283,97.471594 136.50438,96.136304 C 141.4161,93.087994 141.66798,88.602024 148.09944,86.644974 C 154.5309,84.687913 155.4009,87.868884 158.93974,88.152504 C 164.43834,88.593194 167.90354,87.909704 169.35566,87.930674 C 175.25637,88.014564 180.14507,81.864656 186.49921,81.456599 z "
       sodipodi:nodetypes="cssszssszsssssssssssssssszssszzszzsssssssssssssssssssszzsssssszssssssszssssssssssssssssszsssszzszsssssssssssssssssszsssszz" />
    <path
       style="fill:#fff98d;fill-opacity:1;fill-rule:nonzero;stroke:none;stroke-width:1px;stroke-linecap:butt;stroke-linejoin:miter;stroke-opacity:1"
       id="path18385"
       d="M 455.52322,35.45526 C 464.34984,32.351624 464.7856,40.050771 478.08679,40.793061 C 491.38798,41.535351 487.54559,40.383285 496.63269,42.409664 C 505.29984,44.342398 501.45174,53.50585 511.12199,54.576471 C 512.24261,54.700538 517.03667,54.710067 521.04821,56.406989 C 525.05974,58.10391 532.48616,55.070074 538.65361,52.451958 C 544.47279,49.981682 547.80547,48.306926 555.63766,46.199346 C 559.40332,45.186038 562.21126,43.34851 570.26582,40.379512 C 570.69167,40.22254 571.80793,34.304886 573.97038,32.552058 C 576.13284,30.79923 579.3415,33.211227 580.92171,34.561267 C 584.08213,37.261348 583.75919,50.865888 587.85006,54.773835 C 591.94094,58.681782 597.16262,58.196437 600.80569,61.506092 C 604.44875,64.815747 606.5132,71.920403 608.33019,72.825608 C 611.96417,74.636023 621.93014,76.282742 626.1202,80.7199 C 630.31027,85.157054 631.13465,91.775654 632.2358,95.002764 C 634.02931,100.259 634.06341,109.69937 636.71257,112.67179 C 639.62441,115.93895 641.76667,117.22601 642.75439,117.70388 C 650.65615,121.52683 650.91049,129.09596 655.68117,131.95537 C 660.81626,135.0332 668.57919,136.86907 668.87134,147.05165 C 669.1636,157.23835 659.85164,157.93358 657.63872,162.46886 C 655.5319,166.7867 655.30899,182.04295 656.20352,186.38408 C 657.08637,190.66852 653.13017,206.46487 653.00227,208.23051 C 652.79361,211.11094 657.00936,230.22196 657.15457,235.53664 C 657.23596,238.51572 621.04956,236.6628 617.18565,235.62309 C 613.32174,234.58338 608.83947,234.37732 605.11188,229.85366 C 604.40382,228.99439 601.53547,226.10894 597.54883,224.13507 C 595.55551,223.14813 590.5047,225.16702 588.08248,224.37175 C 585.66027,223.57649 585.86665,219.96707 583.27605,218.83523 C 578.09484,216.57154 576.37289,218.66228 572.08113,216.93354 C 567.78938,215.2048 560.92781,209.65659 559.60952,209.28757 C 558.29123,208.91856 543.98248,209.57023 542.49094,207.32075 C 540.9994,205.07127 539.95071,205.98156 538.38348,203.0993 C 536.81625,200.21705 535.4881,198.08794 535.96305,195.31552 C 536.42635,192.61102 543.00917,185.08677 541.58323,184.68204 C 540.87026,184.47967 535.88122,185.39308 533.50141,185.49325 C 532.06184,185.55384 527.56294,188.92097 524.91251,191.0215 C 524.13025,191.64146 525.4914,206.47856 522.21858,211.74512 C 518.94577,217.01169 511.039,212.70772 509.90366,212.42118 C 506.8636,211.65391 505.30361,212.52884 503.77522,210.59159 C 502.24683,208.65434 495.19419,207.69298 495.81609,199.97012 C 496.00639,197.60694 507.25976,180.28829 507.135,176.8114 C 507.06143,174.76111 514.37421,162.68237 513.63634,161.36121 C 512.89846,160.04006 513.65517,150.62477 513.44786,149.87418 C 511.79914,143.9048 513.3165,137.38314 507.06619,137.84456 C 500.03919,138.36332 494.79303,135.84293 488.89367,134.09657 C 482.99431,132.3502 477.29718,129.4031 472.35782,131.45718 C 467.61354,133.43015 473.69001,140.73286 468.1729,143.33889 C 466.79467,143.98991 463.75027,143.41438 461.69617,142.80813 C 459.64207,142.20188 453.32528,139.58583 453.88952,138.6815 C 457.82836,132.36846 455.26157,126.32148 452.95596,125.78384 C 447.74106,124.56781 443.01049,123.69995 438.55977,125.56093 C 434.24907,127.36336 433.18635,130.2465 430.98003,127.15094 C 428.13519,123.15951 423.99239,113.47653 421.42089,112.52174 C 418.8494,111.56695 413.16548,104.69028 413.20398,104.40351 C 413.77864,100.1231 420.02091,91.095224 423.04256,82.071331 C 426.2167,72.592059 428.25889,79.19631 432.4733,69.665332 C 436.85238,59.761949 441.37761,65.157056 442.66544,58.135325 C 443.93239,51.227406 442.18087,53.550314 448.15008,48.925913 C 454.08225,44.330212 447.01515,38.446886 455.52322,35.45526 z "
       sodipodi:nodetypes="czzzsssssssssssszzzzzsssssssssssssssssssssssssssssssszzzzzz" />
    <path
       style="fill:none;fill-opacity:0.75;fill-rule:evenodd;stroke:#000000;stroke-width:3;stroke-linecap:butt;stroke-linejoin:miter;stroke-miterlimit:4;stroke-dasharray:none;stroke-opacity:1"
       d="M 457.96364,35.560768 C 453.49258,35.357264 451.06607,38.97513 451.14511,44.65214 C 451.21706,49.820339 446.62915,48.410486 444.57912,50.965593 C 441.61176,54.664051 444.74137,62.108689 440.49518,62.347757 C 435.57532,62.624753 432.58316,68.037614 432.07477,71.691668 C 431.23744,77.709942 423.92168,75.311369 424.16685,81.731918 C 424.30467,85.340923 420.27201,89.352664 419.83038,91.119154 C 418.88709,94.892304 416.29902,99.953837 414.02201,102.23085 C 410.76244,105.49041 403.85653,102.96675 400.89002,105.51385 C 399.10381,107.04752 395.69351,109.5286 393.56642,112.33238 C 392.02304,114.36675 388.57307,117.74759 383.46489,117.38314 C 377.9883,116.9924 374.25692,120.25334 370.58545,121.17121 C 365.84406,122.35655 363.99586,122.69234 359.97884,123.6966 C 355.83651,124.73218 353.69248,127.28848 349.1197,127.48467 C 344.16611,127.69719 340.77597,132.28538 335.73519,132.03035 C 331.20048,131.80093 332.97894,132.03035 328.41158,132.03035 C 326.5539,132.03035 323.1155,131.56203 320.83369,131.77782 C 318.16329,132.03036 319.90949,127.08109 312.75421,126.97959 C 307.11906,126.89965 308.64333,128.87362 307.02237,129.7575 C 305.4014,130.64139 304.68089,130.51512 301.64253,130.51512 C 295.91834,130.51512 290.19414,130.51512 284.46994,130.51512 C 279.31771,130.51512 277.39908,125.78008 273.10572,124.70674 C 270.00329,123.93114 265.51988,122.55532 263.25674,121.42375 C 259.0558,119.32328 258.15824,115.1615 252.90267,113.8476 C 249.73114,113.05472 246.5466,109.51184 244.82145,107.78669 C 241.73059,104.69583 234.93725,103.37221 231.94201,103.241 C 225.51876,102.95962 223.74479,99.822107 218.30495,100.21055 C 213.19772,100.57524 213.64342,95.552854 210.22372,95.664854 C 206.30649,95.793154 205.01459,95.841684 200.54973,95.076274 C 196.45092,94.373594 195.01304,92.226384 192.54606,90.109004 C 190.35349,88.227144 189.30591,81.74328 185.47499,81.775246 C 182.01276,81.804136 177.3164,86.845354 176.38362,87.078544 C 171.97869,88.179784 165.54615,88.341234 160.97879,88.341234 C 157.10664,88.341234 152.65975,84.928295 148.09935,86.068394 C 143.31908,87.263464 141.67494,89.825824 140.01813,93.139464 C 138.63389,95.907944 133.90906,96.266224 131.93691,100.21055 C 130.03109,104.02217 120.95533,105.00877 116.27954,105.00877 C 111.78178,105.00877 121.36062,110.43336 123.85569,112.33238 C 127.84934,115.37199 128.06945,118.3636 125.87599,120.4136 C 124.52934,121.67217 118.40175,116.66872 115.26939,115.36283 C 110.41779,113.34019 109.93452,107.99193 105.92548,108.54431 C 101.76787,109.11715 95.866948,113.76162 94.561263,116.37299 C 92.021996,121.45152 92.676184,124.31898 89.5105,127.48466 C 86.885594,130.10957 82.06162,131.2091 79.408975,132.53543 C 75.046699,134.71656 69.170014,130.54948 65.266839,131.52527 C 60.505901,132.71551 50.894008,129.21419 49.862013,132.53542 C 48.522014,136.8479 42.82711,140.32795 39.25541,140.11157 C 35.066856,139.85782 33.828989,144.21374 30.921652,145.66741 C 27.957267,147.1496 24.526378,150.62927 23.345508,152.99101 C 22.181768,155.31849 24.903122,164.27224 23.850584,168.64838 C 22.813355,172.96087 27.871878,174.24819 28.901347,179.00244 C 30.541109,186.57512 35.322401,182.48417 40.013025,180.0126 C 43.909728,177.95936 48.134023,176.56217 52.134856,174.96183 C 57.232188,172.9229 57.545051,170.49365 58.195771,167.89077 C 58.426932,166.96612 70.027125,164.53515 75.368364,165.87046 C 77.783055,166.47413 80.459814,169.92124 84.459737,170.92122 C 90.693196,172.47959 89.5105,171.24644 89.5105,178.24483 C 89.5105,182.14185 88.441683,187.31832 87.490195,191.12427 C 86.685878,194.34154 94.767099,196.99838 95.571415,200.21565 C 96.928493,205.64396 91.947249,209.34276 92.540958,212.33748 C 93.376611,216.55258 87.970918,219.61237 86.227505,222.94408 C 84.108133,226.99424 99.43047,225.42407 103.65263,226.47961 C 109.74962,228.00386 109.10081,227.70509 111.73386,222.439 C 114.19189,217.52293 114.17862,216.01944 120.82523,214.35778 C 124.11388,213.53562 129.00432,221.47779 130.92675,222.439 C 135.94732,224.94929 131.30206,228.12461 129.9166,229.51007 C 126.4238,233.00287 123.46424,239.2612 126.88614,240.11667 C 129.06144,240.6605 129.11518,247.39647 130.42168,248.70297 C 131.53014,249.81143 125.21755,257.39767 124.86584,258.8045 C 124.32352,260.97375 112.7967,259.81465 110.7237,259.81465 C 107.05487,259.81465 102.75044,259.81465 101.63233,259.81465"
       id="path2376"
       sodipodi:nodetypes="csssssssssssssssssssssssssssssssssssssssssssssssssssssssssssssssssssssc" />
    <path
       style="fill:none;fill-opacity:0.75;fill-rule:evenodd;stroke:#000000;stroke-width:3;stroke-linecap:butt;stroke-linejoin:miter;stroke-miterlimit:4;stroke-dasharray:none;stroke-opacity:1"
       d="M 102.67328,259.94828 C 101.64383,259.83377 97.510326,258.57347 96.096771,257.8667 C 95.041498,257.33906 94.035976,253.74511 93.596771,252.8667 C 92.658668,250.99049 92.208624,249.70631 91.096771,248.22384 C 89.996391,246.75667 89.121167,245.58708 86.811057,245.00955 C 84.877851,244.52625 82.537636,244.65241 80.382485,244.65241 C 78.307153,244.65241 76.567423,244.98118 75.025343,245.3667 C 72.68976,245.95059 72.555468,246.73502 71.811057,248.22384 C 71.111936,249.62208 70.77424,250.65462 70.025343,252.15241 C 68.945474,254.31215 69.320925,255.18319 67.525343,256.08098 C 65.686472,257.00042 64.721816,257.45594 63.239628,258.93813 C 61.824153,260.3536 58.226041,262.77619 57.70917,264.84367 C 57.123742,267.18539 59.900166,269.5898 60.295828,271.56811 C 60.711157,273.64475 61.948197,273.80521 62.438685,275.76716 C 62.813427,277.26613 65.025373,277.86682 65.382485,279.29527 C 65.844145,281.14191 68.466308,284.39557 69.877409,284.67779 C 71.996421,285.10159 77.028865,289.32692 78.055801,288.29998 C 79.748692,286.60709 78.290721,278.98905 79.6682,277.15241 C 80.882973,275.53271 81.091555,274.743 82.882485,274.29527 C 84.699339,273.84106 87.187272,275.98749 90.007395,275.11416 C 91.226674,274.73658 95.076201,265.20394 97.428171,266.37993 C 98.62266,266.97717 103.66417,268.0112 104.01211,269.40295 C 104.66243,272.00424 93.572582,284.35574 92.882485,286.08098 C 92.255537,287.64835 90.443761,291.40561 90.443761,293.56304 C 90.443761,295.61544 93.140773,295.26784 94.311057,296.43813 C 95.928168,298.05524 96.918271,298.67045 97.882485,301.08098 C 98.53114,302.70261 94.747423,306.99208 94.747423,308.60636 C 94.747423,309.90514 99.76121,309.58375 100.80091,309.84367 C 102.82787,310.35041 105.82335,308.10218 106.81106,307.50955 C 108.91998,306.2442 111.22628,307.00622 113.23963,307.50955 C 115.11806,307.97916 116.86668,309.70804 117.88248,310.72384 C 119.17731,312.01866 119.42638,314.52591 120.02534,315.72384 C 121.05085,317.77485 121.652,318.64027 123.95391,320.3667 C 125.15794,321.26972 129.19099,321.84268 130.73963,322.15241 C 132.92205,322.5889 135.17632,323.65647 137.1682,324.65241 C 138.78964,325.46313 141.04863,325.97966 142.88248,326.43813 C 144.78035,326.91259 147.51778,328.93246 148.95391,330.00955 C 151.36073,331.81466 152.19926,332.63379 152.88248,335.3667 C 153.39402,337.41283 154.40192,339.28895 153.95391,341.08098 C 153.677,342.18865 156.05432,344.44201 156.81106,345.00955 C 158.55923,346.32069 160.82182,347.55887 162.52534,348.58098 C 163.24177,349.01084 165.24217,354.01464 165.73963,355.00955 C 166.99124,357.51278 167.89821,358.64388 168.59677,361.43813 C 169.22861,363.96549 168.95391,365.39538 168.95391,367.8667 C 168.95391,370.14687 170.41573,369.76663 172.1682,371.08098 C 173.9277,372.40061 176.04329,369.12848 176.45391,368.58098 C 177.6381,367.00207 177.84912,365.6429 180.38248,365.00955 C 182.14665,364.56851 182.88889,362.49674 183.59677,361.08098 C 184.48581,359.30291 185.22485,358.73862 186.45391,357.50955 C 188.31902,355.64445 188.01706,354.97591 190.73963,354.29527 C 193.89805,353.50566 195.4613,354.85832 197.88248,356.79527 C 200.07349,358.54807 201.98242,359.28085 203.23963,361.79527 C 204.01653,363.34908 203.59677,365.78431 203.59677,367.50955 C 203.59677,370.22851 202.88248,372.79065 202.88248,375.3667 C 202.88248,377.92251 203.41596,379.2863 203.95391,381.43813 C 204.56139,383.86802 205.82838,385.36455 206.45391,387.8667 C 207.16887,390.72654 211.8412,392.52463 213.95391,393.58098 C 216.81919,395.01362 220.07189,394.65241 223.23963,394.65241 C 226.13411,394.65241 228.79645,395.3667 231.45391,395.3667 C 234.31106,395.3667 237.1682,395.3667 240.02534,395.3667 C 242.39675,395.3667 243.60849,395.0037 245.02534,394.29527 C 246.64455,393.48566 249.15268,393.4816 250.38248,392.8667 C 251.8362,392.13984 255.51446,392.8667 257.1682,392.8667 C 259.19201,392.8667 261.21582,392.8667 263.23963,392.8667 C 265.65635,392.8667 266.54604,391.95081 268.59677,391.43813"
       id="path3105"
       sodipodi:nodetypes="csssssssssssssssssssssssssssssssssssssssssssssssssssssssssssssssc" />
    <path
       style="fill:#bba2ee;fill-opacity:1;fill-rule:nonzero;stroke:none;stroke-width:1px;stroke-linecap:butt;stroke-linejoin:miter;stroke-opacity:1"
       id="path18383"
       d="M 180.48766,297.05981 C 184.9727,296.98578 193.95212,295.58241 198.61893,298.11854 C 203.28574,300.65467 208.42812,302.25164 212.17991,302.14005 C 215.57485,302.03908 235.03679,305.42927 232.46307,311.65477 C 231.80585,313.2445 230.45506,315.71666 228.20911,319.61862 C 227.61943,320.64308 225.38075,326.26367 227.08733,328.78606 C 228.7939,331.30846 229.22901,333.80585 232.85133,334.72149 C 237.32836,335.85317 242.35206,328.73122 243.70942,330.90183 C 246.43111,335.25417 244.28652,345.4054 242.86992,345.80404 C 237.20351,347.39864 222.88602,344.31349 218.09317,343.49517 C 214.44126,342.87165 211.79433,338.36809 208.45846,336.92297 C 205.12258,335.47784 202.16919,333.16258 196.47578,337.27279 C 192.9308,339.832 191.63466,340.49012 188.76728,339.03261 C 185.8999,337.5751 183.95571,332.33868 181.59794,329.1904 C 179.40775,326.26589 172.69539,323.9945 168.91367,320.77361 C 165.33461,317.72531 164.90547,314.64502 162.81236,310.04846 C 160.77613,305.5768 169.26937,300.51039 168.71866,297.53089 C 168.16795,294.55139 176.00262,297.13384 180.48766,297.05981 z "
       sodipodi:nodetypes="czzzssssssssszzzzz" />
    <path
       style="fill:none;fill-opacity:0.75;fill-rule:evenodd;stroke:#000000;stroke-width:3;stroke-linecap:butt;stroke-linejoin:miter;stroke-miterlimit:4;stroke-dasharray:none;stroke-opacity:1"
       d="M 190.38248,296.43813 C 189.90629,296.43813 195.71467,296.43813 190.38248,296.43813 C 186.80906,296.43813 183.24161,296.79527 179.6682,296.79527 C 177.21364,296.79527 171.28199,295.03802 169.39028,295.38464 C 166.37889,295.93642 169.58984,299.51152 166.97694,301.37685 C 165.7153,302.27753 164.28971,303.00655 163.71932,304.14733 C 163.05053,305.4849 163.07486,308.09245 162.64789,309.80035 C 162.22959,311.47354 164.65392,313.52386 165.02534,315.00955 C 165.48711,316.85661 166.61287,318.87877 168.59677,320.3667 C 170.15585,321.53601 171.52534,322.29527 172.1682,323.58098 C 172.66686,324.5783 175.7967,325.67524 176.81106,326.08098 C 178.96313,326.94181 179.8684,326.99547 181.45391,328.58098 C 182.42182,329.54889 182.9335,331.8973 183.59677,333.22384 C 184.44572,334.92175 186.0183,338.10308 187.1682,338.56304 C 189.00033,339.29589 190.95249,339.78239 193.03042,339.78239 C 195.43536,339.78239 197.21382,336.77702 198.95391,336.08098 C 200.8719,335.31379 202.74395,335.29743 204.31106,336.08098 C 206.29164,337.07127 208.78358,337.64554 211.09677,338.22384 C 213.34484,338.78586 214.07793,343.59327 215.90551,344.05016 C 217.14687,344.36051 220.4831,343.33017 221.66312,343.92018 C 223.29015,344.7337 225.99914,342.99645 227.88248,343.93813 C 229.68269,344.83823 235.96384,347.14975 237.69866,346.71605 C 239.40368,346.28979 243.49413,345.99474 244.25721,344.46859 C 245.30938,342.36426 244.91558,331.55861 243.39499,330.03802 C 242.13556,328.77859 238.83881,335.84114 234.75486,335.61924 C 232.51265,335.49741 230.01669,333.57233 228.59677,332.15241 C 227.28751,330.84315 227.0093,328.62033 226.45391,327.50955 C 225.7167,326.03513 227.21027,323.41272 227.52534,322.15241 C 228.13814,319.70124 229.49352,319.09721 230.02534,316.43813 C 230.54759,313.82688 234.19508,312.48425 233.70881,310.05288 C 233.61255,309.57156 233.79107,308.59054 231.07883,307.61416 C 227.744,306.41366 225.99548,305.26541 225.02534,304.29527 C 223.74528,303.01521 219.02788,302.72511 217.1682,301.79527 C 215.02287,300.7226 212.64732,300.72384 210.02534,300.72384 C 206.44016,300.72384 203.17541,299.42081 200.38248,298.22384 C 198.41129,297.37904 195.61065,296.51693 191.9336,296.43813"
       id="path3107"
       sodipodi:nodetypes="csssssssssssssssssssssssssssssssssss" />
    <path
       style="fill:none;fill-opacity:0.75;fill-rule:evenodd;stroke:#000000;stroke-width:3;stroke-linecap:butt;stroke-linejoin:miter;stroke-miterlimit:4;stroke-dasharray:none;stroke-opacity:1"
       d="M 268.59677,391.79527 C 269.75731,395.34787 274.87198,399.00168 278.59677,401.79527 C 281.0646,403.64614 289.48595,402.50955 292.88248,402.50955 C 296.69652,402.50955 301.51192,405.94973 305.73963,406.79527 C 308.20401,407.28814 312.78669,409.96166 315.02534,411.08098 C 318.43509,412.78586 319.83805,414.96273 324.31106,416.08098 C 328.90911,417.2305 331.97879,418.22384 337.1682,418.22384 C 341.64014,418.22384 345.3555,418.88415 347.1682,422.50955 C 348.90683,425.98682 349.76877,427.19756 350.73963,431.08098 C 351.79249,435.29244 351.30737,437.21648 352.88248,440.3667 C 354.79261,444.18694 359.38876,440.28899 360.73963,438.93813 C 363.38257,436.29518 362.98183,435.3667 367.88248,435.3667 C 372.50747,435.3667 376.338,438.85119 379.31106,441.08098 C 382.04776,443.13351 383.86304,445.72173 385.73963,448.22384 C 388.68452,452.15036 395.31835,454.23114 397.88248,456.79527 C 399.5662,458.47899 401.26373,462.84348 402.1682,464.65241 C 403.67651,467.66902 404.2572,470.25898 405.73963,473.22384 C 406.38973,474.52404 412.96142,476.47759 413.59677,476.79527 C 417.13717,478.56547 420.64757,477.82067 424.31106,479.65241 C 427.26639,481.13008 429.9382,481.77784 433.59677,482.50955 C 438.62662,483.51552 438.82445,482.02295 442.1682,485.3667 C 444.19886,487.39736 445.08431,489.88828 445.73963,492.50955 C 446.51832,495.62431 445.73963,499.99423 445.73963,503.22384 C 445.73963,505.59483 440.57321,506.30116 438.59677,506.79527 C 436.07275,507.42627 431.9854,506.08098 428.59677,506.08098 C 425.02534,506.08098 421.45391,506.08098 417.88248,506.08098 C 413.70817,506.08098 411.29515,506.83496 408.59677,507.50955 C 406.77033,507.96616 406.76241,514.847 406.45391,516.08098 C 405.78676,518.7496 403.31808,520.50604 400.73963,521.79527 C 399.25559,522.53729 398.38161,527.65591 397.88248,529.65241 C 396.87432,533.68508 395.99467,532.81543 397.1682,537.50955 C 398.40171,542.4436 395.99422,544.06542 400.02534,546.08098 C 403.92918,548.0329 402.20595,552.16185 406.45391,553.22384 C 409.20078,553.91056 411.38622,552.6712 413.59677,553.22384 C 414.54915,553.46194 415.50153,553.70003 416.45391,553.93813 C 421.09566,555.09856 425.09426,557.16964 429.31106,558.22384 C 435.05377,559.65952 435.43091,563.78377 438.59677,565.3667 C 442.75656,567.44659 447.4398,568.93813 452.1682,568.93813 C 456.06522,568.93813 458.58157,567.14861 462.88248,568.22384 C 463.83487,568.46194 464.78725,568.70003 465.73963,568.93813 C 469.38926,569.85054 471.76164,573.8393 472.88248,576.08098 C 474.0047,578.32541 483.81367,579.65241 486.45391,579.65241 C 489.96999,579.65241 494.4438,578.22384 498.59677,578.22384 C 503.33625,578.22384 505.98109,578.64135 510.02534,579.65241 C 514.09997,580.67107 514.91301,577.7316 517.79583,576.29019 C 519.47246,575.45187 521.08689,569.66473 521.829,568.18052 C 523.2094,565.41971 524.51183,564.07755 525.65297,561.79527 C 527.20502,558.69118 529.94082,556.41908 530.73963,553.22384 C 531.43368,550.44765 533.87705,547.94356 536.45391,545.3667 C 538.8733,542.94731 539.99104,541.21819 540.73963,538.22384 C 541.59265,534.81175 542.95025,533.49492 542.1682,530.3667 C 541.1757,526.39669 535.07259,529.04031 531.48981,528.14462 C 527.27178,527.09011 527.63595,524.40588 525.02534,521.79527 C 522.13751,518.90744 524.64573,513.86322 521.20137,512.46623 C 517.26689,510.87044 517.01122,508.61226 517.3774,504.44321 C 517.75493,500.14491 517.88248,495.46879 517.88248,491.79527 C 517.88248,487.9518 515.5752,486.46641 514.31106,483.93813 C 512.95867,481.23336 512.88248,478.20417 512.88248,473.93813 C 512.88248,472.61613 517.04901,468.46222 517.88248,466.79527 C 519.33576,463.88871 517.86024,458.72265 518.97186,456.4994 C 520.4221,453.59892 520.91679,450.38003 522.49996,447.21369 C 524.05581,444.10199 529.59685,442.65226 531.45391,438.93813 C 532.93286,435.98023 530.69126,430.98425 530.02534,429.65241 C 527.88909,425.3799 527.5118,423.88394 526.45391,419.65241 C 525.52446,415.9346 530.24023,412.29467 531.74978,410.78512"
       id="path3109"
       sodipodi:nodetypes="cssssssssssssssssssssssssssssssssssssssssssssssssssssssssssssssss" />
    <path
       style="fill:none;fill-opacity:0.75;fill-rule:evenodd;stroke:#000000;stroke-width:3;stroke-linecap:butt;stroke-linejoin:miter;stroke-miterlimit:4;stroke-dasharray:none;stroke-opacity:1"
       d="M 670.27787,246.79527 C 664.92745,246.58987 660.86581,247.38337 657.88248,250.3667 C 655.70014,252.54904 653.41592,255.71342 651.57646,257.55288 C 649.93383,259.19551 650.62163,262.34649 649.98202,264.90495 C 649.18919,268.07628 646.62797,269.13916 644.93868,270.82844 C 642.69918,273.06794 642.77338,275.5653 643.55345,278.68559 C 644.0465,280.65779 645.10846,285.41071 645.6963,287.76209 C 646.53348,291.11081 644.97573,294.13659 644.31106,296.79527 C 643.47436,300.14207 642.57324,301.59275 639.31106,303.22384 C 636.39617,304.68128 634.47842,305.28302 631.45391,306.79527 C 628.54445,308.25 628.04965,309.69802 627.1682,313.22384 C 626.37813,316.3841 624.72609,318.10806 623.59677,320.3667 C 622.75115,322.05794 616.16766,320.53258 613.84931,320.53258 C 609.67618,320.53258 606.21659,320.96174 602.88248,321.79527 C 600.33559,322.43199 600.73963,327.61711 600.73963,330.3667 C 600.73963,335.05264 600.79958,336.73531 598.59677,338.93813 C 596.39539,341.1395 593.03852,340.4196 590.73963,340.99432 C 586.90798,341.95224 583.31942,341.01165 580.73963,340.3667 C 576.89818,339.40633 576.18808,340.58627 574.27516,341.54273 C 572.13495,342.61283 570.33784,349.57584 569.26773,351.71605 C 567.53478,355.18194 567.1682,353.24652 567.1682,357.50955 C 567.1682,360.21426 563.83822,362.74094 562.88248,364.65241 C 561.01093,368.39553 561.47312,372.20049 558.25757,372.76209 C 554.89183,373.34992 555.17316,373.71617 552.1682,372.21369 C 548.11531,370.18725 543.85528,375.12619 543.04837,378.35382 C 542.18385,381.81189 542.58662,381.77165 542.58662,385.5759 C 542.58662,389.90944 544.60685,392.50985 543.89263,395.3667 C 543.06495,398.67744 541.30897,400.51164 539.31106,402.50955 C 537.12872,404.6919 536.15052,406.38438 534.31106,408.22384 C 533.35868,409.17622 532.40629,410.1286 531.45391,411.08098"
       id="path3111"
       sodipodi:nodetypes="cssssssssssssssssssssssssssssc" />
    <path
       style="fill:none;fill-opacity:0.75;fill-rule:evenodd;stroke:#000000;stroke-width:3;stroke-linecap:butt;stroke-linejoin:miter;stroke-miterlimit:4;stroke-dasharray:none;stroke-opacity:1"
       d="M 444.85203,124.10401 C 439.44062,123.4545 441.14912,125.97861 437.88248,126.79527 C 435.0452,127.50459 432.8728,126.96599 430.53042,128.13718 C 427.61326,129.59576 425.36646,131.98185 422.88248,133.22384 C 419.66586,134.83215 418.57621,137.59181 417.88248,140.3667 C 417.13324,143.36369 415.09958,144.35545 414.31106,147.50955 C 413.63774,150.20281 411.20052,152.39433 407.88248,153.22384 C 403.97717,154.20017 402.98897,155.57189 399.31106,154.65241 C 395.73119,153.75745 391.51206,154.98048 389.31106,156.08098 C 387.32497,157.07402 385.73963,161.4326 385.73963,163.93813 C 385.73963,167.86866 385.73963,170.44638 385.73963,173.93813 C 385.73963,177.50955 385.73963,181.08098 385.73963,184.65241 C 385.73963,188.38471 384.30894,191.0831 382.1682,193.22384 C 380.7772,194.61484 377.43396,196.66239 375.73963,197.50955 C 372.62321,199.06776 371.48054,200.18147 367.88248,201.08098 C 365.66777,201.63466 364.08117,205.57196 363.59677,207.50955 C 362.87675,210.38965 361.59109,214.10372 360.73963,217.50955 C 360.10862,220.03357 361.45391,224.12092 361.45391,227.50955 C 361.45391,231.16978 359.95063,233.29856 357.88248,235.3667 C 355.63525,237.61394 353.64985,238.17076 351.45391,240.3667 C 350.13284,241.68777 343.72034,242.09063 341.45391,243.22384 C 338.11894,244.89133 336.00225,246.01533 332.88248,246.79527 C 329.76773,247.57396 325.39781,246.79527 322.1682,246.79527 C 317.39244,246.79527 314.48434,247.33627 312.1682,249.65241 C 310.44004,251.38057 311.45391,257.17819 311.45391,259.65241 C 311.45391,261.94709 310.02534,265.39645 310.02534,268.93813 C 310.02534,272.44867 309.92827,276.46928 309.31106,278.93813 C 308.28931,283.02512 312.54006,282.85198 308.59677,286.79527 C 305.81441,289.57763 304.63931,288.28162 302.88248,291.79527 C 302.19323,293.17378 302.88248,299.56856 302.88248,301.79527 C 302.88248,306.67821 304.79112,306.54943 302.88248,310.3667 C 301.4684,313.19487 298.46005,313.97231 295.73963,314.65241 C 292.61454,315.43368 292.83916,322.33253 292.83916,325.49668 C 292.83916,331.05974 296.54057,330.93984 296.54057,335.45336 C 296.54057,340.1751 294.38441,339.57906 292.1682,341.79527 C 290.29473,343.66874 287.64606,345.12777 285.73963,346.08098 C 282.42096,347.74032 278.95261,344.29396 277.88248,343.22384 C 275.80522,341.14658 272.16446,341.08005 269.31106,340.3667 C 266.81256,339.74207 265.18599,343.50066 262.88248,344.65241 C 260.03047,346.07842 260.37812,348.76174 257.1682,350.3667 C 255.84508,351.02826 254.09235,357.19345 253.71932,358.68559 C 252.74831,362.5696 257.14912,361.21518 259.14517,364.31321 C 261.42551,367.85249 263.54446,368.74534 266.45391,361.79527 C 267.9688,358.17652 267.95275,357.54469 272.1682,359.65241 C 275.89798,361.5173 275.02534,363.65209 275.02534,368.22384 C 275.02534,372.00538 274.42439,373.48478 273.59677,376.79527 C 272.89321,379.60951 271.35162,382.20443 270.73963,384.65241 C 270.03356,387.47668 268.55345,391.5553 268.55345,393.14462"
       id="path3113"
       sodipodi:nodetypes="cssssssssssssssssssssssssssssssssssssssssssssssc" />
    <path
       style="fill:none;fill-opacity:0.75;fill-rule:evenodd;stroke:#000000;stroke-width:3;stroke-linecap:butt;stroke-linejoin:miter;stroke-miterlimit:4;stroke-dasharray:none;stroke-opacity:1"
       d="M 669.98201,246.8027 C 673.01716,247.28901 674.24077,235.41898 671.03549,235.49669 C 668.45421,235.55927 666.77465,232.01095 664.78024,232.50955 C 661.52296,233.32387 657.31369,235.86604 653.59677,236.79527 C 649.99861,237.69481 645.20366,236.79527 641.45391,236.79527 C 637.1682,236.79527 632.88248,236.79527 628.59677,236.79527 C 623.68633,236.79527 618.56749,237.49491 614.31106,235.3667 C 610.96832,233.69533 609.15519,232.43162 606.45391,231.08098 C 603.74765,229.72785 604.53362,226.67234 599.31106,225.3667 C 596.66459,224.70508 592.93161,224.65241 589.31106,224.65241 C 584.91737,224.65241 584.15017,222.18779 582.88248,219.65241 C 581.66516,217.21775 574.77398,217.50955 572.1682,217.50955 C 570.34468,217.50955 565.97581,212.74574 565.02534,211.79527 C 563.30646,210.07638 557.8642,208.93355 555.02534,208.22384 C 550.90911,207.19478 549.22707,209.65241 545.02534,209.65241 C 543.12243,209.65241 539.65577,205.71141 538.59677,204.65241 C 536.87563,202.93127 535.57916,199.01053 535.02534,196.79527 C 534.35601,194.11793 542.1955,187.0978 543.06105,185.3667 C 544.60267,182.28346 533.48942,186.79527 531.27535,186.79527 C 528.4772,186.79527 525.12982,190.87202 524.31106,192.50955 C 523.15224,194.82718 524.27919,198.3513 523.59677,201.08098 C 523.28849,202.31411 524.22725,207.13049 523.59677,209.65241 C 522.70376,213.22444 520.60205,214.65241 515.73963,214.65241 C 511.11977,214.65241 509.65525,212.5956 506.45391,211.79527 C 503.49244,211.0549 500.81716,209.33404 498.59677,208.22384 C 495.26071,206.55581 495.73963,204.64705 495.73963,200.3667 C 495.73963,196.21094 496.59238,194.51395 498.59677,192.50955 C 501.24647,189.85986 501.76912,187.19435 503.59677,185.3667 C 505.56246,183.40101 507.1682,178.13277 507.1682,174.65241 C 507.1682,171.86556 510.54188,168.42159 512.1682,166.79527 C 513.7318,165.23167 513.34549,160.07587 512.88248,158.22384 C 512.1038,155.10908 512.88248,150.73917 512.88248,147.50955 C 512.88248,143.90262 510.99071,142.7996 510.02534,138.93813 C 509.8318,138.16396 498.86759,137.70658 497.88248,137.50955 C 494.5373,136.84052 491.94559,135.32217 488.59677,134.65241 C 485.5547,134.044 484.56522,132.03738 480.73963,131.08098 C 475.95205,129.88409 472.23237,129.55996 470.65297,132.71876 C 469.27384,135.47701 471.63145,140.28717 470.02534,142.50955 C 467.80528,145.58145 461.65615,143.50713 459.85946,143.05796 C 456.06445,142.10921 452.79583,139.92072 455.57375,135.41002 C 458.15653,131.21619 457.15464,126.44185 452.5074,125.28004 C 450.64313,124.81397 446.50744,123.5556 444.26772,124.06068"
       id="path3115"
       sodipodi:nodetypes="cssssssssssssssssssssssssssssssssssssssssc" />
    <path
       style="fill:none;fill-opacity:0.75;fill-rule:evenodd;stroke:#000000;stroke-width:3;stroke-linecap:butt;stroke-linejoin:miter;stroke-miterlimit:4;stroke-dasharray:none;stroke-opacity:1"
       d="M 457.79583,35.66255 C 460.02774,35.145124 467.18417,37.874668 469.31106,38.938111 C 472.48802,40.526591 473.30222,41.080968 477.88248,41.080968 C 482.19472,41.080968 484.13247,42.509539 488.59677,42.509539 C 493.03614,42.509539 496.622,42.236439 500.02534,43.938111 C 502.7901,45.32049 503.05409,49.281321 504.31106,51.795254 C 505.70012,54.573373 509.57445,54.539673 512.88248,55.366682 C 515.30226,55.971627 520.06167,56.080968 524.31106,56.080968 C 526.28458,56.080968 531.75565,55.112676 533.59677,54.652397 C 535.68582,54.130135 538.14029,51.730802 540.73963,51.080968 C 544.05549,50.252003 546.5141,48.908017 549.31106,47.509539 C 551.19607,46.567032 554.66749,45.456146 557.88248,44.652397 C 561.1686,43.830869 563.26878,42.591536 566.45391,41.795254 C 569.61783,41.004274 570.88312,38.220651 571.45391,35.366682 C 572.3168,31.052258 576.61181,31.8742 579.31106,33.223825 C 581.50153,34.319062 583.11751,38.449653 583.59677,40.366682 C 584.46973,43.858534 585.02534,45.594131 585.02534,47.509539 C 585.02534,50.343989 587.36429,52.901716 588.59677,55.366682 C 589.82544,57.824012 596.795,59.074547 600.02534,60.366682 C 603.92009,61.924581 603.50977,65.018667 604.31106,68.223825 C 604.92603,70.683729 607.79003,72.664997 610.02534,73.223825 C 612.44123,73.827796 615.42696,76.002801 618.59677,76.795254 C 623.83911,78.105837 625.02098,79.648032 627.88248,82.509539 C 630.05588,84.682932 630.15068,88.725174 630.73963,91.080964 C 631.53168,94.249184 632.7075,96.809594 633.59677,100.3667 C 634.59678,104.36672 634.27711,107.37378 635.02534,110.3667 C 635.93459,114.00369 640.72566,114.64123 644.31106,117.50955 C 646.65054,119.38114 648.5027,122.41548 650.73963,124.65241 C 652.73844,126.65123 654.38075,129.93118 655.02534,132.50955 C 655.32792,133.71985 664.36981,137.1671 665.73963,137.50955 C 666.74065,137.75981 668.2969,143.45293 668.59677,144.65241 C 669.48106,148.18956 668.62401,150.25776 667.88248,153.22384 C 667.11377,156.29872 664.34992,157.13298 662.1682,158.22384 C 659.57621,159.51984 658.24284,161.78885 657.1682,163.93813 C 656.13833,165.99787 656.84388,172.37827 656.45391,173.93813 C 655.55183,177.54646 654.96096,180.10918 655.73963,183.22384 C 656.51832,186.3386 655.73963,190.70851 655.73963,193.93813 C 655.73963,197.97259 654.35812,200.17845 653.59677,203.22384 C 652.81808,206.3386 653.59677,210.70851 653.59677,213.93813 C 653.59677,216.71055 654.31106,220.6808 654.31106,223.93813 C 654.31106,227.27146 657.08898,231.10987 657.08898,234.44321"
       id="path3117"
       sodipodi:nodetypes="csssssssssssssssssssssssssssssssssssssssc" />
    <path
       style="fill:none;fill-opacity:0.75;fill-rule:evenodd;stroke:#000000;stroke-width:3;stroke-linecap:butt;stroke-linejoin:miter;stroke-miterlimit:4;stroke-dasharray:none;stroke-opacity:1"
       d="M 411.41059,103.18052 C 413.78099,104.07504 418.59677,107.30948 418.59677,111.79527 C 418.59677,114.50997 424.99802,112.87059 425.53042,115.53258 C 426.31589,119.45991 428.59677,118.89139 428.59677,123.93813 C 428.59677,125.90989 430.71394,128.11364 431.07883,129.57319"
       id="path3119"
       sodipodi:nodetypes="csssc" />
    <path
       style="fill:none;fill-opacity:0.75;fill-rule:evenodd;stroke:#000000;stroke-width:3;stroke-linecap:butt;stroke-linejoin:miter;stroke-miterlimit:4;stroke-dasharray:none;stroke-opacity:1"
       d="M 525.73963,56.080968 C 525.73963,60.542871 524.69117,63.177887 522.88248,66.795254 C 521.11617,70.327876 521.0023,71.458831 520.02534,75.366682 C 519.37972,77.949188 522.95114,79.927034 523.59677,82.509539 C 524.56243,86.372184 526.48361,87.568934 527.88248,90.366684 C 529.6755,93.952714 531.8447,95.501284 532.88248,99.652407 C 533.48106,102.04669 530.78829,105.98366 530.02534,107.50955 C 528.30968,110.94087 527.4007,110.84848 525.02534,113.22384 C 523.29951,114.94967 522.85123,118.34884 522.1682,121.08098 C 521.30776,124.52273 518.77112,125.99381 515.73963,127.50955 C 512.63828,129.06023 510.60659,131.21402 508.59677,133.22384 C 507.3526,134.46801 508.58862,136.7193 508.97558,138.26716"
       id="path3121"
       sodipodi:nodetypes="cssssssssssc" />
    <path
       style="fill:none;fill-opacity:0.75;fill-rule:evenodd;stroke:#000000;stroke-width:3;stroke-linecap:butt;stroke-linejoin:miter;stroke-miterlimit:4;stroke-dasharray:none;stroke-opacity:1"
       d="M 605.02534,69.652397 C 604.88152,69.796221 602.1682,77.909839 602.1682,78.938111 C 602.1682,82.73326 606.97904,85.177528 607.1682,85.366682 C 608.02754,86.226024 605.30401,93.380774 605.02534,93.938114 C 603.33197,97.324864 602.06273,99.863337 600.73963,102.50955 C 600.10909,103.77063 593.63143,105.34937 592.1682,106.08098 C 590.53816,106.896 588.45637,113.78545 587.88248,116.08098 C 587.75336,116.59748 587.40629,117.03336 587.1682,117.50955 C 585.21791,121.41014 585.72741,126.05655 587.1682,128.93813 C 588.37158,131.34489 587.88248,135.55033 587.88248,138.93813 C 587.88248,142.88174 588.59459,146.07663 590.02534,148.93813 C 591.77644,152.44032 590.8187,154.13647 595.73963,155.3667 C 599.58132,156.32712 600.54696,158.03117 602.88248,160.3667 C 604.87088,162.35509 604.31106,167.48978 604.31106,170.3667 C 604.31106,173.93813 604.31106,177.50955 604.31106,181.08098 C 604.31106,184.65241 604.31106,188.22384 604.31106,191.79527 C 604.31106,193.38229 601.23008,197.69062 600.73963,199.65241 C 599.71858,203.73661 597.1682,203.43048 597.1682,208.22384 C 597.1682,211.7611 598.59677,214.08014 598.59677,218.22384 C 598.59677,220.60479 598.59677,222.98575 598.59677,225.3667"
       id="path3123" />
    <path
       style="fill:none;fill-opacity:0.75;fill-rule:evenodd;stroke:#000000;stroke-width:3;stroke-linecap:butt;stroke-linejoin:miter;stroke-miterlimit:4;stroke-dasharray:none;stroke-opacity:1"
       d="M 89.887923,179.44321 C 89.887923,179.4943 99.57678,181.92525 102.53585,181.92525 C 106.87432,181.92525 111.54161,175.3667 116.45391,175.3667 C 119.88435,175.3667 123.91515,176.42591 125.15532,173.94556 C 127.42399,169.40824 117.70073,162.17354 123.38013,161.03766 C 126.3943,160.43482 133.87587,167.67868 136.57646,168.35382 C 140.52676,169.3414 141.45391,172.09376 141.45391,175.3667 C 141.45391,179.35668 141.51343,182.98578 140.73963,186.08098 C 140.10687,188.61202 138.61584,191.00472 137.88248,193.93813 C 136.77497,198.36818 141.37781,201.71917 143.59677,203.93813 C 145.8197,206.16106 149.64744,207.84594 151.45391,209.65241 C 153.40233,211.60083 157.03804,212.29844 160.73963,213.22384 C 164.72568,214.22035 169.19848,216.73898 172.1682,218.22384 C 175.37058,219.82503 180.47164,219.65241 184.31106,219.65241 C 189.07781,219.65241 191.04364,221.51413 195.02534,222.50955 C 198.56288,223.39394 203.47656,222.50955 207.1682,222.50955 C 212.43927,222.50955 214.59987,223.49716 215.73963,218.93813 C 216.66132,215.25134 213.74856,210.25956 212.88248,206.79527 C 211.83363,202.59987 210.88152,201.40265 215.02534,200.3667 C 218.42687,199.51631 222.51668,198.04094 227.1682,200.3667 C 230.79745,202.18132 234.22532,203.20241 237.1682,203.93813 C 242.08383,205.16703 242.39555,208.02872 241.45391,211.79527 C 240.54102,215.44686 239.80527,217.80299 237.88248,220.3667 C 236.80422,221.80439 231.73348,223.79834 230.02534,224.65241 C 227.01791,226.15613 225.82003,227.34874 224.31106,230.3667 C 222.40085,234.18711 225.88153,238.36575 227.1682,239.65241 C 229.32718,241.81139 231.68244,242.38811 235.02534,243.22384 C 240.05274,244.48069 240.69408,241.08098 245.02534,241.08098 C 249.11825,241.08098 250.96445,241.49433 255.02534,242.50955 C 258.78381,243.44917 263.97102,242.50955 267.88248,242.50955 C 272.7074,242.50955 276.24055,244.54573 279.31106,246.08098 C 282.62628,247.73859 286.10793,249.12228 288.59677,250.3667 C 291.85139,251.99401 294.16118,255.29176 297.1682,256.79527 C 299.94785,258.18509 303.00534,260.93313 306.45391,261.79527 C 307.66159,262.09719 309.46855,261.79527 310.73963,261.79527"
       id="path3125"
       sodipodi:nodetypes="csssssssssssssssssssssssssssssssssc" />
    <path
       style="fill:none;fill-opacity:0.75;fill-rule:evenodd;stroke:#000000;stroke-width:3;stroke-linecap:butt;stroke-linejoin:miter;stroke-miterlimit:4;stroke-dasharray:none;stroke-opacity:1"
       d="M 269.31106,124.65241 C 272.77585,125.51861 263.74868,129.75905 262.88248,133.22384 C 261.98122,136.82891 265.70719,138.1914 267.1682,139.65241 C 269.43151,141.91572 265.99804,144.76638 263.59677,145.3667 C 261.7449,145.82966 259.84856,149.64526 259.31106,151.79527 C 258.37061,155.55704 255.10049,155.32912 252.1682,156.79527 C 248.5192,158.61977 246.66193,158.82033 245.73963,162.50955 C 244.95567,165.64537 243.75104,168.32105 242.88248,171.79527 C 241.88373,175.79027 244.16787,179.79396 245.02534,183.22384 C 246.00002,187.12256 243.9412,190.39212 242.88248,192.50955 C 241.48351,195.30751 238.44897,196.11793 235.73963,196.79527 C 233.67539,197.31133 232.11198,199.76485 231.45391,201.08098"
       id="path3127" />
  </g>
</svg>
